<svg width="400" height="260" viewBox="0 0 400 260" fill="none" xmlns="http://www.w3.org/2000/svg">
<g clip-path="url(#clip0_2267_21674)">
<path d="M0 12C0 5.37258 5.37258 0 12 0H388C394.627 0 400 5.37258 400 12V260H0V12Z" fill="#E6F2F2"/>
<g opacity="0.7">
<mask id="mask0_2267_21674" style="mask-type:luminance" maskUnits="userSpaceOnUse" x="-10" y="-4" width="419" height="278">
<path d="M408.422 -4H-9.47266V274H408.422V-4Z" fill="white"/>
</mask>
<g mask="url(#mask0_2267_21674)">
<path opacity="0.4" d="M-52.8359 150.23C-44.7614 139.129 -28.975 131.059 -11.5947 126.768C9.16794 121.643 32.6478 121.552 53.4982 126.517C88.1576 134.769 115.938 156.323 152.737 157.016C173.564 157.409 193.738 150.588 208.268 140.653C222.798 130.718 232.202 117.916 238.731 104.753C247.963 86.1434 252.212 65.984 268.498 49.6537C275.361 42.7704 284.761 36.5593 296.679 34.2419C315.82 30.5195 335.433 37.4751 354.312 41.749C376.771 46.8337 402.77 47.9601 423.247 39.9898C445.294 31.4091 456.759 12.3672 449.713 -3.96584L-33.2409 -13.459L-52.8359 150.23Z" stroke="#005B5B" stroke-width="0.538" stroke-miterlimit="10"/>
</g>
<mask id="mask1_2267_21674" style="mask-type:luminance" maskUnits="userSpaceOnUse" x="-10" y="-4" width="419" height="278">
<path d="M408.422 -4H-9.47266V274H408.422V-4Z" fill="white"/>
</mask>
<g mask="url(#mask1_2267_21674)">
<path opacity="0.4" d="M472.391 118.329C459.453 95.528 427.508 77.9807 391.404 73.8435C355.301 69.7063 316.371 79.1322 292.712 97.7398C275.582 111.211 266.746 128.338 255.128 144.2C243.511 160.062 227.168 175.859 202.332 182.052C186.747 185.939 169.514 185.574 153.007 184.156C124.953 181.745 97.5793 176.461 69.4892 174.237C41.4 172.013 11.4997 173.131 -12.9071 182.644C-47.8807 196.277 -64.2179 223.817 -74.5875 249.886C-75.8621 253.09 -75.9482 256.789 -77.3581 259.968C-79.7644 265.393 -80.2073 271.199 -78.6369 276.758H472.391V118.329Z" stroke="#005B5B" stroke-width="0.538" stroke-miterlimit="10"/>
</g>
<mask id="mask2_2267_21674" style="mask-type:luminance" maskUnits="userSpaceOnUse" x="-10" y="-4" width="419" height="278">
<path d="M408.422 -4H-9.47266V274H408.422V-4Z" fill="white"/>
</mask>
<g mask="url(#mask2_2267_21674)">
<path opacity="0.4" d="M140.824 276.856C143.261 260.931 146.638 243.643 163.733 232.379C179.445 222.026 202.979 219.344 224.988 217.916C246.998 216.488 270.229 215.558 288.737 207.508C311.36 197.667 321.85 179.408 328.66 162.007C335.47 144.606 340.446 126.171 356.707 111.809C374.106 96.441 403.337 87.768 432.256 87.932C461.176 88.096 489.359 96.65 510.188 109.998V276.855L140.824 276.856Z" stroke="#005B5B" stroke-width="0.538" stroke-miterlimit="10"/>
</g>
<mask id="mask3_2267_21674" style="mask-type:luminance" maskUnits="userSpaceOnUse" x="-10" y="-4" width="419" height="278">
<path d="M408.422 -4H-9.47266V274H408.422V-4Z" fill="white"/>
</mask>
<g mask="url(#mask3_2267_21674)">
<path opacity="0.4" d="M319.964 -4.88672C319.964 -4.88672 259.824 8.77921 239.537 53.4077C230.05 74.2782 207.929 92.8764 179.042 103.179C167.924 107.143 154.874 109.755 142.701 107.55C130.507 105.342 121.258 98.6877 114.474 91.5948C107.69 84.502 102.638 76.6712 94.9583 69.9942C87.2783 63.3178 76.0503 57.7039 63.4131 57.6505C51.6828 57.601 41.08 62.302 32.616 67.7046C24.1519 73.1073 16.9073 79.4229 7.3651 83.9615C-1.71743 88.2822 -12.6913 90.8198 -23.8441 91.1784C-40.2816 91.7066 -56.1783 87.6445 -71.5 83.6485L-2.54402 -67.375L319.964 -4.88672Z" stroke="#005B5B" stroke-width="0.538" stroke-miterlimit="10"/>
</g>
</g>
<path d="M298.443 251.152C294.35 250.901 290.398 249.693 286.495 248.493C284.059 247.745 281.623 246.996 279.188 246.248C279.221 245.355 279.469 244.511 280.024 243.783C282.279 240.829 287.961 240.129 291.419 240.574C295.189 241.059 298.73 242.531 302.401 243.481C307.255 244.735 312.369 245.06 317.358 244.446C312.384 249.017 305.363 251.575 298.443 251.152Z" fill="#005B5B"/>
<path d="M282.913 254.115C281.195 252.425 279.081 249.089 279.187 246.249C281.623 246.997 284.059 247.746 286.495 248.494C290.398 249.693 294.35 250.902 298.443 251.153C305.363 251.577 312.384 249.018 317.358 244.448C317.486 244.432 317.615 244.423 317.743 244.406C315.702 251.076 310.129 256.759 303.15 258.825C296.169 260.89 287.992 259.11 282.913 254.115Z" fill="#54AAAA"/>
<path d="M73.8567 224.725C75.5368 227.438 77.8924 229.706 80.2235 231.944C81.6782 233.341 83.1335 234.738 84.5882 236.134C85.2535 235.786 85.8051 235.31 86.1552 234.665C87.5778 232.044 86.0408 227.895 84.4445 225.688C82.7038 223.281 80.2971 221.39 78.2404 219.22C75.5218 216.35 73.4134 212.963 72.0643 209.322C70.404 214.394 71.0162 220.137 73.8567 224.725Z" fill="#005B5B"/>
<path d="M77.2604 236.444C79.1686 237.006 82.4715 237.242 84.5888 236.134C83.1342 234.737 81.6788 233.34 80.2242 231.944C77.8938 229.706 75.5374 227.437 73.8574 224.724C71.0169 220.136 70.4046 214.393 72.0643 209.321C72.0295 209.228 71.9894 209.136 71.956 209.043C67.6349 212.869 65.3474 218.756 66.3192 224.291C67.291 229.826 71.6189 234.782 77.2604 236.444Z" fill="#54AAAA"/>
<path d="M267.568 221.537C270.67 209.965 271.074 197.916 271.461 185.981C271.611 181.368 271.761 176.755 271.91 172.143C264.545 190.043 263.621 209.637 261.912 228.787C261.735 230.76 260.958 233.048 261.222 234.998C264.731 231.835 266.396 225.913 267.568 221.537Z" fill="#0D5D56"/>
<path d="M282.151 193.469C282.18 182.424 280.383 171.457 278.592 160.545C279.362 165.236 277.264 171.739 276.757 176.495C276.19 181.816 275.684 187.144 275.309 192.48C274.935 197.807 274.688 203.142 274.637 208.48C274.6 212.389 273.237 220.882 275.494 224.136C281.299 215.997 282.127 202.99 282.151 193.469Z" fill="#0D5D56"/>
<path d="M294.643 175.232C293.86 165.55 291.556 156.041 289.101 146.613C289.333 155.074 289.178 163.544 288.636 171.992C288.325 176.842 287.916 181.7 288.037 186.563C288.099 189.05 288.286 191.539 288.716 193.994C288.939 195.272 289.472 200.355 290.73 201.051C293.055 202.337 294.282 191.645 294.496 189.748C295.038 184.929 295.034 180.061 294.643 175.232Z" fill="#0D5D56"/>
<path d="M292.152 130.686C293.104 132.807 292.518 136.755 292.695 139.086C292.915 141.982 293.178 144.875 293.533 147.758C294.248 153.551 295.316 159.326 297.133 164.905C297.522 166.098 298.664 171.276 300.173 171.324C302.323 171.393 302.221 167.195 302.202 166.095C302.103 160.422 300.969 154.786 299.36 149.337C297.473 142.953 294.885 136.778 292.152 130.686Z" fill="#0D5D56"/>
<path d="M305.961 128.506C303.901 120.776 300.274 113.503 297.891 105.857C299.077 109.663 297.93 115.388 298.101 119.402C298.304 124.163 298.694 128.924 299.492 133.632C300.265 138.194 301.416 142.709 303.132 147.039C304.054 149.363 304.668 151.16 306.028 148.232C306.838 146.489 307.097 144.34 307.299 142.464C307.799 137.792 307.17 133.041 305.961 128.506Z" fill="#0D5D56"/>
<path d="M312.495 163.274C314.565 159.762 315.668 155.808 316.398 151.844C317.971 143.311 317.899 134.508 316.185 126C315.488 138.847 310.911 151.255 305.014 162.835C303.788 165.242 302.096 168.491 303.439 171.145C307.159 170.827 310.811 166.13 312.495 163.274Z" fill="#0D5D56"/>
<path d="M310.684 187.125C316.845 178.755 322.27 169.584 323.987 159.502C317.315 168.663 310.169 177.511 302.581 186.003C300.285 188.572 297.94 191.117 295.912 193.887C294.499 195.816 289.948 201.097 294.837 200.115C301.67 198.744 306.932 192.223 310.684 187.125Z" fill="#0D5D56"/>
<path d="M314.132 201.107C305.888 206.796 297.086 211.756 287.88 215.902C284.331 217.5 279.764 219.104 277.156 222.037C273.474 226.181 282.529 223.527 284.591 222.953C292.402 220.777 299.644 216.779 305.532 211.444C308.888 208.403 311.808 204.923 314.132 201.107Z" fill="#0D5D56"/>
<path d="M284.959 234.702C293.061 232.842 300.702 228.819 306.164 222.836C298.948 226.395 291.492 230.022 283.392 230.681C279.85 230.969 276.281 230.677 272.731 230.867C269.849 231.022 265.994 231.256 263.381 232.526C260.32 234.014 262.557 235.125 265.079 235.496C271.612 236.458 278.539 236.176 284.959 234.702Z" fill="#0D5D56"/>
<path d="M301.755 127.322C303.358 133.137 304.252 139.127 304.612 145.145C304.916 151.167 304.67 157.217 303.942 163.211C302.468 175.196 299.257 187.014 294.167 198.114C291.558 203.632 288.497 208.978 284.815 213.931C283.859 215.145 282.959 216.397 281.931 217.558L280.428 219.327L278.839 221.028C277.806 222.184 276.645 223.229 275.538 224.32C274.978 224.859 274.367 225.35 273.784 225.866C273.187 226.369 272.621 226.903 272.001 227.381C267.145 231.315 261.796 234.629 256.275 237.58C250.72 240.486 245.022 243.098 239.277 245.607C244.847 242.763 250.468 240.009 255.849 236.883C261.253 233.808 266.46 230.408 271.124 226.428C275.778 222.444 279.9 217.922 283.472 213.039C287.044 208.151 290.04 202.893 292.583 197.45C297.634 186.539 300.857 174.874 302.627 163.053C303.507 157.138 303.896 151.153 303.768 145.173C303.74 142.181 303.513 139.193 303.2 136.212C302.854 133.234 302.355 130.272 301.755 127.322Z" fill="#004046"/>
<path d="M87.2956 154.717C86.3102 142.812 88.0693 130.874 89.8242 119.049C90.5025 114.48 91.1801 109.909 91.8584 105.34C95.9118 124.169 93.3151 143.627 91.5717 162.775C91.3919 164.748 91.7488 167.128 91.14 169.007C88.2491 165.323 87.6681 159.218 87.2956 154.717Z" fill="#005B5B"/>
<path d="M77.9501 124.702C79.8992 113.814 83.6325 103.297 87.3509 92.832C85.7518 97.3304 86.6555 104.077 86.3041 108.846C85.9112 114.181 85.4556 119.514 84.8692 124.833C84.2842 130.142 83.5726 135.44 82.6675 140.708C82.0049 144.565 81.8278 153.154 79.0207 155.997C74.7582 147.041 76.2701 134.089 77.9501 124.702Z" fill="#005B5B"/>
<path d="M68.8998 104.711C71.4052 95.2961 75.3776 86.2981 79.4834 77.4043C77.74 85.7042 76.3773 94.0759 75.3994 102.488C74.8382 107.318 74.371 112.172 73.3808 116.945C72.8748 119.386 72.2456 121.807 71.3821 124.158C70.9333 125.38 69.4977 130.303 68.1336 130.786C65.6125 131.678 66.3167 120.944 66.4461 119.039C66.7757 114.203 67.6508 109.406 68.8998 104.711Z" fill="#005B5B"/>
<path d="M79.3285 61.2148C78.0114 63.1519 77.882 67.1365 77.2902 69.4054C76.5554 72.223 75.7783 75.0314 74.9121 77.816C73.1714 83.4083 71.0855 88.9276 68.296 94.1311C67.6995 95.2439 65.6476 100.162 64.152 99.9655C62.0211 99.6853 62.8724 95.5661 63.0883 94.485C64.2011 88.9108 66.3272 83.5397 68.8892 78.4299C71.8897 72.4449 75.5454 66.7768 79.3285 61.2148Z" fill="#005B5B"/>
<path d="M66.1133 56.8389C69.5272 49.5548 74.4026 42.9732 78.1203 35.8242C76.2699 39.3825 76.3755 45.2097 75.4888 49.1375C74.4367 53.7963 73.1999 58.4253 71.5709 62.9353C69.9923 67.3062 68.0501 71.5703 65.5841 75.5589C64.2602 77.7003 63.3334 79.3721 62.5168 76.2673C62.0313 74.4196 62.1593 72.2593 62.2969 70.3773C62.6401 65.6926 64.1104 61.1128 66.1133 56.8389Z" fill="#005B5B"/>
<path d="M53.45 90.0454C52.0389 86.2503 51.6596 82.1764 51.6487 78.1516C51.6255 69.4894 53.2729 60.8259 56.4839 52.7188C54.8719 65.4911 57.1608 78.4576 60.8996 90.8217C61.6766 93.3915 62.7622 96.8663 60.9643 99.2653C57.3563 98.3505 54.5975 93.1314 53.45 90.0454Z" fill="#005B5B"/>
<path d="M50.968 113.84C46.395 104.596 42.6903 94.683 42.8033 84.4707C47.7373 94.5756 53.1963 104.449 59.1538 114.043C60.9558 116.946 62.8115 119.833 64.3145 122.891C65.3606 125.019 68.9012 130.959 64.2587 129.201C57.772 126.746 53.7534 119.47 50.968 113.84Z" fill="#005B5B"/>
<path d="M45.0664 127.062C52.1721 134 59.9568 140.309 68.2884 145.883C71.4993 148.031 75.7128 150.349 77.7572 153.661C80.6447 158.338 72.1967 154.261 70.2674 153.362C62.9594 149.956 56.5395 144.847 51.6913 138.638C48.9271 135.098 46.6729 131.198 45.0664 127.062Z" fill="#005B5B"/>
<path d="M67.8041 164.88C60.1522 161.738 53.3421 156.54 49.0312 149.762C55.505 154.435 62.2035 159.214 70.0685 161.171C73.5076 162.027 77.0768 162.315 80.5405 163.076C83.3524 163.694 87.1102 164.547 89.4577 166.221C92.2076 168.182 89.8043 168.915 87.2519 168.874C80.6419 168.767 73.8672 167.37 67.8041 164.88Z" fill="#005B5B"/>
<path d="M70.4709 56.3535C69.352 59.1633 68.3298 62.0015 67.4561 64.8805C66.6137 67.7673 65.8564 70.6754 65.2925 73.6191C64.096 79.4909 63.4088 85.4521 63.2168 91.4235C62.8456 103.358 63.9332 115.374 66.9576 126.942C68.4892 132.716 70.5009 138.382 73.146 143.775C75.791 149.165 79.0442 154.287 82.9179 158.964C86.8017 163.639 91.3243 167.831 96.0996 171.734C100.842 175.684 105.889 179.307 110.867 183.009C105.656 179.607 100.508 176.114 95.5541 172.353C90.6413 168.553 85.9641 164.423 81.8827 159.762C81.3577 159.191 80.8939 158.573 80.3967 157.981C79.9146 157.378 79.4011 156.795 78.9448 156.174C78.0493 154.921 77.0925 153.703 76.2814 152.397L75.0201 150.464L73.8556 148.479C73.0499 147.169 72.3873 145.789 71.662 144.439C68.921 138.963 66.8616 133.201 65.2782 127.342C62.249 115.58 61.1996 103.416 61.8922 91.3673C62.2484 85.3421 63.0887 79.3408 64.4664 73.456C65.8972 67.5829 67.8504 61.8236 70.4709 56.3535Z" fill="#004046"/>
<path d="M66.2773 140.098C68.3864 140.256 68.9279 140.852 70.8946 141.593C80.6468 145.264 90.9042 147.722 101.323 148.884C101.953 147.318 102.543 145.724 103.089 144.109C90.8974 142.585 78.5697 140.69 67.5624 135.768C67.1341 137.211 66.7057 138.654 66.2773 140.098Z" fill="#54AAAA"/>
<path d="M207.71 89.447C212.645 78.2953 215.222 66.2935 216.573 54.2644C215.166 54.1046 213.761 53.9377 212.355 53.7676C210.666 65.5695 207.561 77.1877 203.117 88.3246C204.605 88.692 206.125 89.0647 207.71 89.447Z" fill="#54AAAA"/>
<path d="M129.845 71.1539C142.681 61.9463 148.715 49.3376 151.132 42.8175C148.698 42.2359 146.268 41.6413 143.843 41.0254C143.843 41.0254 146.24 54.6175 127.084 66.1658C107.929 77.7148 86.559 71.764 86.559 71.764C86.2062 72.9538 85.8528 74.1429 85.5 75.332C95.4381 77.6015 116.445 80.7659 129.845 71.1539Z" fill="#54AAAA"/>
<path d="M190.015 85.093C194.664 86.2148 198.753 87.248 203.117 88.3252C207.561 77.1884 210.666 65.5695 212.355 53.7682C191.736 51.2684 171.287 47.635 151.131 42.8184C148.714 49.3385 142.68 61.9472 129.844 71.1548C116.444 80.7667 95.4372 77.6024 85.4998 75.3335C79.5205 95.4787 73.5418 115.625 67.5625 135.77C78.5698 140.692 90.8968 142.587 103.089 144.111C104.809 139.023 106.067 133.731 106.557 128.468C115.651 151.278 125.191 174.233 135.466 196.586C135.466 196.586 164.295 205.8 194.502 190.752C224.709 175.704 230.592 155.76 230.592 155.76C216.046 132.75 202.505 109.167 190.015 85.093Z" fill="#0D5D56"/>
<mask id="mask4_2267_21674" style="mask-type:luminance" maskUnits="userSpaceOnUse" x="67" y="42" width="164" height="158">
<path d="M190.015 85.093C194.664 86.2148 198.753 87.248 203.117 88.3252C207.561 77.1884 210.666 65.5695 212.355 53.7682C191.736 51.2684 171.287 47.635 151.131 42.8184C148.714 49.3385 142.68 61.9472 129.844 71.1548C116.444 80.7667 95.4372 77.6024 85.4998 75.3335C79.5205 95.4787 73.5418 115.625 67.5625 135.77C78.5698 140.692 90.8968 142.587 103.089 144.111C104.809 139.023 106.067 133.731 106.557 128.468C115.651 151.278 125.191 174.233 135.466 196.586C135.466 196.586 164.295 205.8 194.502 190.752C224.709 175.704 230.592 155.76 230.592 155.76C216.046 132.75 202.505 109.167 190.015 85.093Z" fill="white"/>
</mask>
<g mask="url(#mask4_2267_21674)">
<path d="M125.279 174.182C122.517 166.845 122.507 158.754 124.153 151.121C125.8 143.488 129.036 136.246 132.655 129.254C140.785 137.393 145.394 148.615 145.217 159.834C145.039 171.053 140.074 182.138 131.689 190.04" stroke="#54AAAA" stroke-width="0.611317" stroke-miterlimit="10"/>
<path d="M132.651 129.246C133.458 132.975 133.42 136.816 133.329 140.622C133.048 152.407 132.288 164.181 131.055 175.91C130.76 178.714 130.436 181.525 129.715 184.258" stroke="#54AAAA" stroke-width="0.611317" stroke-miterlimit="10"/>
<path d="M175.552 148.91C170.017 145.456 164.513 141.957 159.042 138.414C153.93 135.103 147.73 131.993 143.265 127.943C150.665 125.777 159.636 130.165 164.953 134.759C169.653 138.819 173.314 144.079 175.901 149.591C162.096 148.438 149.229 139.954 143.25 128.08" stroke="#54AAAA" stroke-width="0.611317" stroke-miterlimit="10"/>
<path d="M190.182 163.637C188.844 156.481 187.57 149.315 186.362 142.142C185.233 135.44 183.06 128.002 183.103 121.264C190.909 125.654 194.151 136.331 194.305 144.18C194.442 151.117 192.687 158.123 189.857 164.441C179.9 152.286 177.192 135.302 182.97 121.356" stroke="#54AAAA" stroke-width="0.705386" stroke-miterlimit="10"/>
<path d="M164.344 113.915C164.385 113.385 164.527 112.776 165.029 112.544C165.884 112.149 166.678 113.182 166.968 114.042C167.606 115.928 167.978 117.895 168.072 119.874C168.332 118.445 168.853 117.059 169.603 115.796C170.245 114.712 171.463 113.594 172.683 114.045C173.473 114.338 173.876 115.23 173.797 116.032C173.718 116.834 173.258 117.555 172.747 118.199C172.022 119.112 171.172 119.935 170.224 120.641C172.425 120.398 174.722 121.075 176.392 122.458C176.974 122.941 177.519 123.682 177.22 124.359C177.003 124.852 176.419 125.095 175.873 125.22C174.033 125.642 172 125.224 170.508 124.117C171.824 125.709 172.635 127.673 172.808 129.691C172.854 130.228 172.8 130.873 172.312 131.15C171.647 131.528 170.854 130.901 170.407 130.298C169.247 128.735 168.073 125.053 168.073 125.053C168.073 125.053 168.258 128.22 167.698 129.701C167.479 130.281 167.044 130.931 166.396 130.896C165.743 130.861 165.39 130.158 165.245 129.552C164.749 127.491 165.038 125.268 166.048 123.384C164.155 123.884 162.049 123.605 160.373 122.63C160.049 122.442 159.724 122.208 159.602 121.866C159.426 121.371 159.76 120.802 160.245 120.553C161.931 119.688 165.818 120.655 165.818 120.655C165.818 120.655 164.173 116.152 164.344 113.915Z" stroke="#54AAAA" stroke-width="0.611317" stroke-miterlimit="10"/>
<path d="M169.885 122.264C169.885 123.232 169.059 124.017 168.04 124.017C167.021 124.017 166.195 123.232 166.195 122.264C166.195 121.296 167.021 120.512 168.04 120.512C169.059 120.512 169.885 121.296 169.885 122.264Z" fill="#54AAAA"/>
<path d="M202.132 128.406C202.164 127.981 202.278 127.492 202.681 127.306C203.367 126.989 204.004 127.818 204.237 128.509C204.749 130.022 205.047 131.6 205.122 133.187C205.332 132.041 205.749 130.929 206.351 129.915C206.866 129.046 207.843 128.148 208.822 128.511C209.456 128.745 209.779 129.461 209.716 130.105C209.653 130.748 209.283 131.327 208.874 131.843C208.292 132.576 207.61 133.237 206.85 133.803C208.616 133.607 210.458 134.151 211.798 135.261C212.265 135.649 212.702 136.242 212.463 136.786C212.288 137.181 211.82 137.376 211.381 137.477C209.905 137.815 208.274 137.479 207.076 136.591C208.133 137.868 208.784 139.445 208.922 141.064C208.959 141.495 208.915 142.012 208.524 142.234C207.99 142.537 207.354 142.034 206.996 141.551C206.065 140.296 205.123 137.342 205.123 137.342C205.123 137.342 205.272 139.884 204.823 141.071C204.647 141.537 204.298 142.059 203.778 142.03C203.254 142.002 202.971 141.438 202.854 140.952C202.456 139.298 202.689 137.514 203.498 136.002C201.98 136.404 200.289 136.18 198.945 135.398C198.686 135.247 198.424 135.059 198.327 134.785C198.186 134.388 198.453 133.931 198.843 133.732C200.196 133.037 203.315 133.813 203.315 133.813C203.315 133.813 201.994 130.201 202.132 128.406Z" stroke="#54AAAA" stroke-width="0.705386" stroke-miterlimit="10"/>
<path d="M206.574 135.104C206.574 135.881 205.912 136.51 205.094 136.51C204.276 136.51 203.613 135.881 203.613 135.104C203.613 134.327 204.276 133.697 205.094 133.697C205.912 133.697 206.574 134.327 206.574 135.104Z" fill="#54AAAA"/>
<path d="M117.074 133.187C117.306 132.823 117.643 132.436 118.091 132.445C118.853 132.46 119.022 133.474 118.899 134.189C118.629 135.757 118.138 137.292 117.444 138.738C118.181 137.808 119.085 136.998 120.107 136.356C120.982 135.806 122.282 135.429 122.98 136.175C123.432 136.659 123.377 137.436 123.012 137.981C122.647 138.526 122.041 138.881 121.428 139.164C120.559 139.565 119.635 139.857 118.687 140.032C120.353 140.623 121.733 141.903 122.394 143.472C122.624 144.019 122.728 144.737 122.255 145.117C121.911 145.394 121.4 145.364 120.961 145.264C119.485 144.926 118.194 143.921 117.553 142.613C117.882 144.207 117.705 145.892 117.053 147.394C116.879 147.794 116.592 148.235 116.138 148.264C115.517 148.303 115.192 147.579 115.104 146.994C114.877 145.475 115.454 142.437 115.454 142.437C115.454 142.437 114.368 144.764 113.399 145.627C113.019 145.966 112.459 146.28 112.009 146.029C111.556 145.777 111.575 145.153 111.703 144.669C112.142 143.025 113.204 141.537 114.65 140.542C113.105 140.243 111.708 139.312 110.886 138.033C110.727 137.787 110.585 137.506 110.63 137.22C110.694 136.805 111.152 136.514 111.593 136.505C113.13 136.472 115.536 138.512 115.536 138.512C115.536 138.512 116.091 134.726 117.074 133.187Z" stroke="#54AAAA" stroke-width="0.705386" stroke-miterlimit="10"/>
<path d="M117.818 141.074C117.445 141.766 116.554 142.04 115.826 141.686C115.098 141.332 114.81 140.485 115.182 139.793C115.555 139.102 116.446 138.828 117.174 139.182C117.902 139.535 118.19 140.383 117.818 141.074Z" fill="#54AAAA"/>
<path d="M198.343 101.13C193.511 95.3994 185.637 93.0735 178.605 90.0257C174.295 88.1572 170.161 85.9213 166.27 83.3535C167.95 88.9698 168.254 94.9102 170.145 100.466C172.737 108.08 178.369 114.72 185.649 118.746C192.929 122.771 201.789 124.143 210.038 122.523C210.491 122.434 211.05 122.21 211.028 121.772" stroke="#54AAAA" stroke-width="0.705386" stroke-miterlimit="10"/>
<path d="M209.013 117.273C200.223 116.133 191.818 112.442 185.21 106.819C180.806 103.071 169.686 87.9386 166.27 83.3535" stroke="#54AAAA" stroke-width="0.705386" stroke-miterlimit="10"/>
<path d="M160.407 189.712C158.782 185.131 157.156 180.55 155.531 175.968C153.347 169.814 151.138 163.513 151.229 157.02C151.235 156.593 151.28 156.107 151.634 155.843C152.035 155.543 152.66 155.699 153.012 156.051C153.363 156.403 153.508 156.892 153.64 157.361C156.259 166.645 158.355 176.062 159.918 185.558C158.599 178.438 158.671 171.16 158.751 163.931C158.784 160.926 159.574 155.383 161.018 155.383C162.463 155.383 161.947 159.307 161.97 161.326C162.071 169.943 162.034 178.56 161.859 187.175C162.466 180.356 163.073 173.537 163.68 166.718C163.994 163.18 164.34 159.536 166.066 156.386C166.312 155.937 166.704 155.439 167.234 155.492C167.939 155.561 168.097 156.461 168.061 157.134C167.523 166.98 166.076 176.781 163.742 186.389C164.963 180.042 166.701 173.797 168.438 167.561C169.329 164.358 170.296 161.02 172.642 158.568C173.138 158.05 173.919 157.549 174.555 157.901C175.204 158.261 175.11 159.166 174.926 159.858C172.519 168.91 169.425 177.796 165.678 186.427C168.197 180.385 170.721 174.332 173.848 168.552C175.371 165.737 177.145 162.877 179.963 161.186C180.294 160.987 180.781 160.826 181.033 161.111C181.159 161.253 181.167 161.456 181.161 161.641C181.106 163.456 180.309 165.169 179.499 166.814C175.501 174.933 170.834 182.755 165.555 190.184" stroke="#54AAAA" stroke-width="0.705386" stroke-miterlimit="10"/>
<path d="M197.773 147.482H206.322" stroke="#54AAAA" stroke-width="0.611317" stroke-miterlimit="10"/>
<path d="M202.047 143.479V151.485" stroke="#54AAAA" stroke-width="0.611317" stroke-miterlimit="10"/>
<path d="M199.027 144.611L205.071 150.354" stroke="#54AAAA" stroke-width="0.611317" stroke-miterlimit="10"/>
<path d="M205.03 144.652L199.07 150.314" stroke="#54AAAA" stroke-width="0.611317" stroke-miterlimit="10"/>
<path d="M146.953 148.615H155.501" stroke="#54AAAA" stroke-width="0.611317" stroke-miterlimit="10"/>
<path d="M151.227 144.611V152.618" stroke="#54AAAA" stroke-width="0.611317" stroke-miterlimit="10"/>
<path d="M148.203 145.744L154.248 151.487" stroke="#54AAAA" stroke-width="0.611317" stroke-miterlimit="10"/>
<path d="M154.206 145.783L148.246 151.445" stroke="#54AAAA" stroke-width="0.611317" stroke-miterlimit="10"/>
<path d="M159.574 106.021H168.122" stroke="#54AAAA" stroke-width="0.611317" stroke-miterlimit="10"/>
<path d="M163.848 102.018V110.024" stroke="#54AAAA" stroke-width="0.611317" stroke-miterlimit="10"/>
<path d="M160.824 103.15L166.869 108.893" stroke="#54AAAA" stroke-width="0.611317" stroke-miterlimit="10"/>
<path d="M166.827 103.191L160.867 108.853" stroke="#54AAAA" stroke-width="0.611317" stroke-miterlimit="10"/>
<path d="M123.035 124.6H131.583" stroke="#54AAAA" stroke-width="0.611317" stroke-miterlimit="10"/>
<path d="M127.309 120.596V128.603" stroke="#54AAAA" stroke-width="0.611317" stroke-miterlimit="10"/>
<path d="M124.289 121.729L130.334 127.471" stroke="#54AAAA" stroke-width="0.611317" stroke-miterlimit="10"/>
<path d="M130.292 121.768L124.332 127.429" stroke="#54AAAA" stroke-width="0.611317" stroke-miterlimit="10"/>
</g>
<path d="M94.6953 96.0527L106.555 128.466L105.237 136.549L94.6953 96.0527Z" fill="#00352F"/>
<path d="M190.012 85.0933L176.047 61.5703L195.079 86.3316L190.012 85.0933Z" fill="#00352F"/>
<path d="M221.277 269.072C213.772 272.687 205.044 273.96 196.744 272.651C188.443 271.341 180.399 267.151 174.528 261.427C157.241 263.667 138.067 254.778 129.464 240.358C114.581 238.602 101.121 229.01 94.6839 216.205C92.6184 219.899 91.0275 223.82 90.0469 227.964C92.9017 235.073 97.6736 241.377 104.363 245.562C111.051 249.746 119.141 251.876 127.143 251.56C130.704 259.644 137.335 266.625 145.567 270.579C153.799 274.533 163.526 275.6 172.491 273.532C179.78 279.553 188.787 283.053 198.426 283.651C208.066 284.247 217.887 281.763 225.937 276.69C235.005 281.755 244.631 285.382 255.133 285.94C265.635 286.498 273.958 283.104 281.63 276.268C280.916 274.07 280.262 271.86 279.653 269.641C261.596 277.792 238.817 277.98 221.277 269.072Z" fill="#005B5B"/>
<path d="M238.1 63.1154C236.885 63.5806 235.977 64.7005 235.813 65.9349C235.649 67.1693 236.236 68.4684 237.291 69.206C236.09 69.7772 235.302 71.0556 235.367 72.3308C235.432 73.606 236.344 74.8061 237.598 75.2654C236.912 76.155 236.207 77.119 236.156 78.2201C236.104 79.3213 237.023 80.5317 238.175 80.4036C237.262 81.6872 237.381 83.5485 238.451 84.7182C239.521 85.8879 241.445 86.258 242.91 85.5774C243.118 88.0805 246.115 89.9988 248.636 89.2418C248.482 90.4251 249.517 91.633 250.74 91.9021C251.963 92.1719 253.239 91.8303 254.412 91.4059C254.461 92.071 255.178 92.7037 255.773 93.0563C256.369 93.4083 257.071 93.559 257.765 93.6573C258.481 93.7589 259.22 93.81 259.924 93.6522C260.629 93.4943 261.303 93.1016 261.644 92.4941C262.526 93.7518 263.805 94.8406 265.362 95.1512C266.918 95.4611 268.742 94.8031 269.371 93.4154C270.317 94.4447 271.453 95.1842 272.892 95.1628C274.33 95.1415 275.762 94.3858 276.436 93.1786C277.521 93.8152 278.48 94.2422 279.73 93.9957C280.979 93.7492 282.094 92.6623 281.987 91.4544C283.178 91.6052 284.341 91.261 284.989 90.2996C285.638 89.3382 285.642 88.0197 285 87.0538C286.181 87.3184 287.354 86.6617 288.038 85.71C288.723 84.7583 288.719 83.4062 288.031 82.4577C289.111 82.5826 289.992 82.0903 290.641 81.2596C291.29 80.4295 291.428 79.2637 290.99 78.3172C291.46 78.0998 291.845 77.8002 292.158 77.4425L289.178 75.4213L280.431 89.4463C280.431 89.4463 268.517 91.8976 257.206 89.4463C245.895 86.9949 239.561 80.1494 239.561 80.1494L240.617 58.5155L237.988 58.291C237.597 58.7051 237.298 59.1987 237.149 59.7376C236.822 60.9164 237.198 62.2478 238.1 63.1154Z" fill="#005B5B"/>
<path d="M129.463 240.357C138.066 254.777 157.24 263.666 174.527 261.426C180.398 267.151 188.443 271.341 196.743 272.65C205.042 273.959 213.771 272.686 221.276 269.072C238.816 277.979 261.595 277.791 279.652 269.64C271.287 239.14 272.51 206.848 274.481 175.273C276.514 142.702 279.649 108.886 296.997 80.7252L292.157 77.4412C291.845 77.799 291.46 78.0992 290.99 78.3159C291.428 79.2624 291.29 80.4283 290.64 81.2583C289.991 82.0884 289.111 82.5814 288.03 82.4565C288.719 83.4049 288.722 84.7571 288.038 85.7088C287.353 86.6605 286.18 87.3171 285 87.0525C285.642 88.0178 285.637 89.3363 284.989 90.2984C284.34 91.2597 283.177 91.6039 281.986 91.4532C282.093 92.6611 280.978 93.748 279.729 93.9945C278.48 94.241 277.521 93.814 276.435 93.1773C275.761 94.3846 274.329 95.1402 272.891 95.1616C271.453 95.1829 270.317 94.4435 269.37 93.4141C268.742 94.8025 266.918 95.4605 265.361 95.1499C263.804 94.84 262.525 93.7506 261.643 92.4929C261.303 93.0997 260.629 93.4931 259.924 93.6509C259.219 93.8088 258.481 93.7577 257.764 93.6561C257.07 93.5578 256.368 93.407 255.772 93.0551C255.177 92.7031 254.461 92.0697 254.412 91.4047C253.239 91.8291 251.963 92.17 250.74 91.9009C249.517 91.6311 248.481 90.4239 248.635 89.2406C246.115 89.9975 243.118 88.0793 242.909 85.5762C241.445 86.2568 239.521 85.8861 238.451 84.717C237.381 83.5479 237.262 81.686 238.175 80.4024C237.022 80.5305 236.103 79.32 236.155 78.2189C236.206 77.1177 236.911 76.1531 237.597 75.2642C236.344 74.8048 235.431 73.6041 235.366 72.3296C235.302 71.055 236.089 69.7766 237.29 69.2047C236.235 68.4672 235.648 67.1681 235.813 65.9337C235.977 64.6992 236.885 63.5794 238.099 63.1142C237.197 62.2466 236.822 60.9151 237.149 59.7357C237.298 59.1968 237.595 58.7032 237.988 58.2891L233.251 57.8848C232.02 73.8907 230.005 89.8422 227.213 105.671C225.633 114.631 223.761 123.679 219.529 131.826C211.165 147.927 194.539 158.719 177.422 166.328C160.304 173.938 141.988 179.13 125.557 188C113.014 194.772 101.349 204.288 94.6836 216.204C101.12 229.009 114.579 238.601 129.463 240.357Z" fill="#54AAAA"/>
<path d="M224.98 116.648C226.73 118.243 228.626 119.681 230.597 121.009C232.562 122.348 234.611 123.568 236.726 124.675C238.836 125.789 241.027 126.757 243.252 127.636C244.376 128.051 245.495 128.477 246.647 128.817C247.783 129.201 248.949 129.494 250.11 129.8C254.763 131.013 259.569 131.646 264.381 132.049C266.79 132.247 269.208 132.35 271.628 132.392C274.048 132.447 276.471 132.419 278.892 132.308C274.066 132.775 269.195 132.79 264.345 132.518C261.921 132.369 259.498 132.139 257.096 131.776C255.889 131.626 254.699 131.382 253.501 131.18C252.313 130.929 251.119 130.695 249.944 130.39C245.243 129.167 240.696 127.404 236.483 125.082C232.288 122.752 228.319 119.999 224.98 116.648Z" fill="#0E5D56"/>
<mask id="mask5_2267_21674" style="mask-type:luminance" maskUnits="userSpaceOnUse" x="94" y="57" width="203" height="219">
<path d="M129.463 240.357C138.066 254.777 157.24 263.666 174.527 261.426C180.398 267.151 188.443 271.341 196.743 272.65C205.042 273.959 213.771 272.686 221.276 269.072C238.816 277.979 261.595 277.791 279.652 269.64C271.287 239.14 272.51 206.848 274.481 175.273C276.514 142.702 279.649 108.886 296.997 80.7252L292.157 77.4412C291.845 77.799 291.46 78.0992 290.99 78.3159C291.428 79.2624 291.29 80.4283 290.64 81.2583C289.991 82.0884 289.111 82.5814 288.03 82.4565C288.719 83.4049 288.722 84.7571 288.038 85.7088C287.353 86.6605 286.18 87.3171 285 87.0525C285.642 88.0178 285.637 89.3363 284.989 90.2984C284.34 91.2597 283.177 91.6039 281.986 91.4532C282.093 92.6611 280.978 93.748 279.729 93.9945C278.48 94.241 277.521 93.814 276.435 93.1773C275.761 94.3846 274.329 95.1402 272.891 95.1616C271.453 95.1829 270.317 94.4435 269.37 93.4141C268.742 94.8025 266.918 95.4605 265.361 95.1499C263.804 94.84 262.525 93.7506 261.643 92.4929C261.303 93.0997 260.629 93.4931 259.924 93.6509C259.219 93.8088 258.481 93.7577 257.764 93.6561C257.07 93.5578 256.368 93.407 255.772 93.0551C255.177 92.7031 254.461 92.0697 254.412 91.4047C253.239 91.8291 251.963 92.17 250.74 91.9009C249.517 91.6311 248.481 90.4239 248.635 89.2406C246.115 89.9975 243.118 88.0793 242.909 85.5762C241.445 86.2568 239.521 85.8861 238.451 84.717C237.381 83.5479 237.262 81.686 238.175 80.4024C237.022 80.5305 236.103 79.32 236.155 78.2189C236.206 77.1177 236.911 76.1531 237.597 75.2642C236.344 74.8048 235.431 73.6041 235.366 72.3296C235.302 71.055 236.089 69.7766 237.29 69.2047C236.235 68.4672 235.648 67.1681 235.813 65.9337C235.977 64.6992 236.885 63.5794 238.099 63.1142C237.197 62.2466 236.822 60.9151 237.149 59.7357C237.298 59.1968 237.595 58.7032 237.988 58.2891L233.251 57.8848C232.02 73.8907 230.005 89.8422 227.213 105.671C225.633 114.631 223.761 123.679 219.529 131.826C211.165 147.927 194.539 158.719 177.422 166.328C160.304 173.938 141.988 179.13 125.557 188C113.014 194.772 101.349 204.288 94.6836 216.204C101.12 229.009 114.579 238.601 129.463 240.357Z" fill="white"/>
</mask>
<g mask="url(#mask5_2267_21674)">
<path d="M101.16 204.139C106.468 215.891 119.217 224.267 132.666 224.835C141.876 225.225 150.993 222.257 160.193 222.82C165.187 223.126 170.106 224.488 174.491 226.777C182.642 231.034 188.57 238.19 195.103 244.481C201.636 250.773 209.69 256.604 218.987 256.879C223.521 257.014 227.964 255.801 232.329 254.63C242.158 251.991 252.139 249.486 262.348 249.191C272.558 248.895 283.141 250.989 291.332 256.785" stroke="#005B5B" stroke-width="0.611317" stroke-miterlimit="10"/>
<path d="M290.477 262.833C279.775 261.513 270.378 254.944 259.665 253.704C255.259 253.193 250.735 253.619 246.52 254.942C242.69 256.143 238.883 258.325 237.331 261.862C235.58 265.853 237.232 270.622 240.301 273.814C243.37 277.005 247.617 278.916 251.827 280.56" stroke="#005B5B" stroke-width="0.611317" stroke-miterlimit="10"/>
<path d="M133.613 249.247C137.785 243.841 142.695 238.748 148.949 235.644C155.204 232.541 163.011 231.69 169.302 234.727C179.43 239.617 182.825 252.622 192.876 257.654C198.084 260.261 204.273 260.286 209.882 261.984C215.49 263.681 221.099 268.388 220.058 273.892" stroke="#005B5B" stroke-width="0.611317" stroke-miterlimit="10"/>
<path d="M139.871 255.204C142.569 249.478 148.914 245.455 155.517 245.365C162.121 245.274 168.62 249.159 171.319 254.884C172.917 258.275 173.222 262.082 173.202 265.797" stroke="#005B5B" stroke-width="0.611317" stroke-miterlimit="10"/>
<path d="M146.504 256.035C149.842 253.06 154.964 252.035 159.281 253.479C163.598 254.921 166.916 258.768 167.558 263.073" stroke="#005B5B" stroke-width="0.611317" stroke-miterlimit="10"/>
<path d="M97.1719 208.035C97.432 211.854 100.196 215.152 103.436 217.428C106.675 219.703 110.437 221.2 113.89 223.171C117.344 225.142 120.631 227.77 122.02 231.362C123.409 234.955 122.273 239.63 118.684 241.368" stroke="#005B5B" stroke-width="0.611317" stroke-miterlimit="10"/>
<path d="M279.546 225.573C264.399 240.113 243.562 249.176 222.078 250.572C218.408 250.81 214.18 250.608 211.86 247.896C208.771 244.286 211.293 238.606 215.251 235.867C221.522 231.528 229.988 231.75 237.325 229.354C252.869 224.275 262.828 207.649 279.096 205.412" stroke="#005B5B" stroke-width="0.611317" stroke-miterlimit="10"/>
<path d="M274.669 212.789C270.237 217.303 264.942 221.051 259.122 223.797C252.707 226.822 245.563 228.701 240.044 233.036C238.219 234.47 236.487 236.797 237.561 238.802C238.323 240.222 240.194 240.758 241.871 240.769C245.997 240.796 249.724 238.586 253.187 236.455C261.682 231.226 270.283 225.911 277.059 218.767" stroke="#005B5B" stroke-width="0.611317" stroke-miterlimit="10"/>
<path d="M109.398 191.813C109.164 204.821 120.689 217.048 134.324 218.259C144.073 219.126 153.978 215.043 163.535 217.064C168.558 218.127 173.018 220.795 177.8 222.6C182.582 224.405 188.262 225.269 192.696 222.788C197.197 220.269 199.184 214.625 197.884 209.818C196.586 205.012 192.443 201.169 187.601 199.309C182.758 197.449 177.306 197.399 172.184 198.368C168.27 199.108 164.107 200.402 160.43 198.929C157.852 197.897 156.039 195.674 154.513 193.446C151.333 188.801 148.867 183.715 147.218 178.4" stroke="#005B5B" stroke-width="0.611317" stroke-miterlimit="10"/>
<path d="M116.727 187.312C118.618 199.291 129.773 209.375 142.461 210.575C147.876 211.086 153.414 210.146 158.747 211.174C162.983 211.991 166.844 214.004 170.925 215.355C175.007 216.706 179.691 217.347 183.529 215.46C185.045 214.716 186.468 213.356 186.36 211.738C186.302 210.867 185.804 210.077 185.233 209.393C182.15 205.7 176.919 204.316 171.984 203.84C167.048 203.363 161.97 203.559 157.253 202.098C147.639 199.119 141.779 190.131 136.742 181.801" stroke="#005B5B" stroke-width="0.611317" stroke-miterlimit="10"/>
<path d="M123.102 187.046C124.14 191.275 126.948 194.931 130.162 198.018C131.866 199.654 133.988 201.266 136.404 201.101C137.25 201.043 138.11 200.738 138.658 200.123C139.756 198.89 139.239 197.023 138.603 195.525C137.578 193.11 136.385 190.76 135.036 188.494C134.111 186.939 132.891 185.276 131.037 184.984" stroke="#005B5B" stroke-width="0.611317" stroke-miterlimit="10"/>
<path d="M210.789 203.047C209.166 203.885 207.605 204.918 206.534 206.347C205.378 207.892 204.876 209.791 204.577 211.665C204.131 214.46 204.098 217.369 205.017 220.057C205.937 222.745 207.904 225.196 210.635 226.319C212.335 227.017 214.225 227.176 216.077 227.182C218.221 227.19 220.405 226.999 222.386 226.218C226.176 224.725 228.807 221.13 229.526 217.292C231.658 205.895 221.761 197.386 210.789 203.047Z" stroke="#005B5B" stroke-width="0.611317" stroke-miterlimit="10"/>
<path d="M200.653 234.234C199.014 236.773 198.571 239.981 199.466 242.835C199.798 243.891 200.337 244.938 201.263 245.603C202.19 246.267 203.571 246.445 204.504 245.79C205.633 244.998 205.687 243.456 205.847 242.132C206.036 240.568 206.541 238.999 207.578 237.77C209.305 235.721 214.482 232.262 209.994 229.733C206.831 227.951 202.201 231.835 200.653 234.234Z" stroke="#005B5B" stroke-width="0.611317" stroke-miterlimit="10"/>
<path d="M245.194 216.317C245.067 217.451 245.217 218.841 246.292 219.348C247.362 219.853 248.606 219.14 249.528 218.418C251.305 217.026 252.958 215.464 254.94 214.347C257.225 213.06 260.751 212.103 261.694 209.436C262.705 206.583 260.304 203.311 257.177 203.036C250.925 202.485 245.731 211.509 245.194 216.317Z" stroke="#005B5B" stroke-width="0.611317" stroke-miterlimit="10"/>
</g>
<path d="M219.691 279.96C221.579 244.155 251.703 187.845 257.525 153.527C257.525 153.527 256.088 170.551 246.829 196.54C239.664 216.653 231.935 240.079 229.659 253.976C227.383 267.873 225.939 276.689 225.939 276.689L219.691 279.96Z" fill="#0E5D56"/>
<path d="M243.694 148.883C243.694 148.883 232.513 186.14 219.508 205.866C210.16 220.042 196.831 231.47 182.691 251.385C177.023 259.368 172.492 273.532 172.492 273.532L165.086 274.73C165.086 274.73 170.078 258.361 179.888 245.789C189.699 233.217 210.575 215.255 218.139 203.482C231.213 183.132 243.694 148.883 243.694 148.883Z" fill="#0E5D56"/>
<path d="M230.589 143.477C230.589 143.477 216.788 173.133 195.786 187.692C177.951 200.056 156.636 208.987 141.357 228.48C132.952 239.203 127.143 251.559 127.143 251.559H121.504C121.504 251.559 127.154 233.906 149.075 216.185C170.996 198.463 186.731 193.104 195.974 186.082C217.86 169.455 230.589 143.477 230.589 143.477Z" fill="#0E5D56"/>
<path d="M309.028 93.6604C308.911 92.2753 308.892 90.8157 309.554 89.5768C309.822 89.076 310.402 88.5714 310.936 88.8153C311.296 88.9809 311.419 89.4053 311.484 89.7812C312.04 92.9746 311.572 96.9858 310.238 99.9735C309.245 98.3593 309.186 95.5386 309.028 93.6604Z" fill="#BFBF22"/>
<path d="M311.448 106.285C311.565 107.67 311.583 109.13 310.921 110.369C310.654 110.87 310.073 111.374 309.54 111.13C309.179 110.965 309.057 110.54 308.991 110.164C308.436 106.971 308.903 102.96 310.237 99.9727C311.23 101.587 311.289 104.407 311.448 106.285Z" fill="#BFBF22"/>
<path d="M316.88 98.8234C318.338 98.7127 319.874 98.6946 321.178 99.3235C321.706 99.5777 322.237 100.129 321.98 100.636C321.806 100.979 321.359 101.095 320.963 101.157C317.602 101.685 313.379 101.24 310.234 99.973C311.934 99.0304 314.903 98.9741 316.88 98.8234Z" fill="#BFBF22"/>
<path d="M303.593 101.122C302.135 101.233 300.598 101.251 299.294 100.622C298.766 100.368 298.236 99.8164 298.493 99.3098C298.667 98.9669 299.114 98.8505 299.509 98.7884C302.871 98.2604 307.093 98.7049 310.237 99.9723C308.538 100.916 305.57 100.972 303.593 101.122Z" fill="#BFBF22"/>
<path d="M314.078 94.6973C315.027 93.6395 316.099 92.5946 317.49 92.1631C318.052 91.9884 318.838 92.0214 319.033 92.5526C319.165 92.9123 318.936 93.294 318.702 93.6039C316.718 96.2351 313.402 98.7576 310.234 99.9739C310.735 98.1656 312.792 96.1316 314.078 94.6973Z" fill="#BFBF22"/>
<path d="M306.392 105.249C305.444 106.306 304.371 107.351 302.98 107.783C302.418 107.957 301.632 107.925 301.437 107.393C301.305 107.034 301.535 106.652 301.768 106.342C303.753 103.711 307.069 101.188 310.235 99.9727C309.736 101.78 307.679 103.814 306.392 105.249Z" fill="#BFBF22"/>
<path d="M315.789 103.623C316.902 104.525 318.002 105.544 318.456 106.865C318.64 107.399 318.605 108.146 318.046 108.331C317.668 108.456 317.265 108.238 316.94 108.016C314.17 106.131 311.515 102.981 310.234 99.9727C312.138 100.448 314.279 102.402 315.789 103.623Z" fill="#BFBF22"/>
<path d="M304.681 96.3222C303.568 95.421 302.468 94.4021 302.014 93.081C301.83 92.5466 301.865 91.8 302.424 91.6149C302.802 91.4894 303.204 91.7074 303.53 91.9294C306.3 93.8146 308.955 96.9647 310.235 99.9737C308.332 99.4982 306.191 97.5444 304.681 96.3222Z" fill="#BFBF22"/>
<path d="M311.713 99.9723C311.713 100.747 311.053 101.374 310.237 101.374C309.422 101.374 308.762 100.747 308.762 99.9723C308.762 99.1979 309.422 98.5703 310.237 98.5703C311.053 98.5703 311.713 99.1979 311.713 99.9723Z" fill="#FFF8ED"/>
<path d="M93.2059 52.5674C93.1283 51.6493 93.116 50.6821 93.5546 49.8611C93.7324 49.5292 94.1165 49.1947 94.4699 49.3565C94.7096 49.4658 94.79 49.7472 94.8336 49.9963C95.202 52.1125 94.8921 54.7709 94.0075 56.75C93.3503 55.6806 93.3108 53.8121 93.2059 52.5674Z" fill="#BFBF22"/>
<path d="M94.8111 60.9346C94.8887 61.8526 94.901 62.8198 94.4624 63.6408C94.2847 63.9727 93.9006 64.3072 93.5471 64.1455C93.3081 64.0361 93.2271 63.7547 93.1835 63.5056C92.8151 61.3894 93.1249 58.731 94.0096 56.752C94.6667 57.8207 94.7062 59.6898 94.8111 60.9346Z" fill="#BFBF22"/>
<path d="M98.4152 55.987C99.3815 55.9133 100.4 55.9016 101.264 56.3183C101.613 56.4871 101.965 56.852 101.795 57.1878C101.68 57.4155 101.384 57.4919 101.122 57.5333C98.8939 57.8833 96.0956 57.5889 94.0117 56.7485C95.1374 56.1242 97.1049 56.0867 98.4152 55.987Z" fill="#BFBF22"/>
<path d="M89.6077 57.5112C88.6413 57.5849 87.6232 57.5966 86.759 57.1799C86.4097 57.0111 86.0576 56.6462 86.2278 56.3104C86.3429 56.0827 86.6392 56.0063 86.9014 55.9649C89.129 55.6149 91.9272 55.9093 94.0105 56.7497C92.8854 57.3747 90.918 57.4115 89.6077 57.5112Z" fill="#BFBF22"/>
<path d="M96.558 53.254C97.1866 52.5534 97.8976 51.8605 98.819 51.5745C99.1915 51.4587 99.7125 51.4807 99.8419 51.8326C99.9297 52.0707 99.7772 52.3243 99.6226 52.5294C98.3076 54.273 96.1099 55.9447 94.0117 56.7502C94.3427 55.5527 95.7054 54.2044 96.558 53.254Z" fill="#BFBF22"/>
<path d="M91.4659 60.2482C90.8373 60.9488 90.1263 61.6417 89.2049 61.9277C88.8324 62.0435 88.3114 62.0215 88.182 61.6695C88.0942 61.4314 88.2467 61.1778 88.4013 60.9728C89.7164 59.2292 91.914 57.5574 94.0122 56.752C93.6819 57.9495 92.3185 59.2971 91.4659 60.2482Z" fill="#BFBF22"/>
<path d="M97.6926 59.169C98.4308 59.7661 99.1595 60.4416 99.4598 61.3169C99.5817 61.6708 99.5586 62.1657 99.1881 62.2887C98.9375 62.3721 98.6705 62.2272 98.4547 62.0803C96.6193 60.8311 94.8596 58.7433 94.0117 56.75C95.273 57.0638 96.6915 58.359 97.6926 59.169Z" fill="#BFBF22"/>
<path d="M90.3301 54.3317C89.5919 53.7345 88.8632 53.0591 88.5622 52.1837C88.4403 51.8298 88.4634 51.3349 88.8339 51.212C89.0845 51.1285 89.3515 51.2734 89.5674 51.4203C91.4027 52.6696 93.1624 54.7574 94.0103 56.7507C92.7497 56.4362 91.3312 55.141 90.3301 54.3317Z" fill="#BFBF22"/>
<path d="M94.9871 56.7513C94.9871 57.2643 94.5492 57.6803 94.0092 57.6803C93.4691 57.6803 93.0312 57.2643 93.0312 56.7513C93.0312 56.2383 93.4691 55.8223 94.0092 55.8223C94.5499 55.8223 94.9871 56.2383 94.9871 56.7513Z" fill="#FFF8ED"/>
<path d="M297.063 230.602C296.946 229.217 296.927 227.757 297.589 226.518C297.857 226.017 298.437 225.513 298.97 225.757C299.331 225.922 299.454 226.347 299.519 226.723C300.075 229.916 299.607 233.927 298.273 236.915C297.28 235.301 297.221 232.481 297.063 230.602Z" fill="#BFBF22"/>
<path d="M299.483 243.227C299.6 244.612 299.619 246.071 298.956 247.31C298.689 247.812 298.109 248.316 297.575 248.072C297.214 247.906 297.092 247.482 297.026 247.106C296.471 243.912 296.939 239.901 298.273 236.914C299.265 238.528 299.324 241.348 299.483 243.227Z" fill="#BFBF22"/>
<path d="M304.918 235.765C306.376 235.654 307.913 235.636 309.217 236.265C309.744 236.519 310.276 237.07 310.018 237.577C309.844 237.92 309.397 238.036 309.002 238.098C305.641 238.626 301.418 238.182 298.273 236.914C299.972 235.971 302.94 235.915 304.918 235.765Z" fill="#BFBF22"/>
<path d="M291.628 238.063C290.17 238.174 288.634 238.192 287.329 237.563C286.802 237.309 286.27 236.758 286.528 236.251C286.702 235.908 287.149 235.792 287.544 235.73C290.905 235.202 295.128 235.646 298.273 236.914C296.574 237.856 293.605 237.913 291.628 238.063Z" fill="#BFBF22"/>
<path d="M302.116 231.639C303.065 230.581 304.138 229.536 305.528 229.105C306.091 228.93 306.877 228.963 307.071 229.494C307.204 229.854 306.974 230.235 306.741 230.545C304.756 233.176 301.44 235.699 298.273 236.915C298.773 235.107 300.83 233.073 302.116 231.639Z" fill="#BFBF22"/>
<path d="M294.431 242.19C293.483 243.248 292.41 244.293 291.019 244.724C290.457 244.899 289.671 244.866 289.476 244.335C289.344 243.975 289.574 243.593 289.807 243.283C291.792 240.652 295.108 238.13 298.274 236.914C297.774 238.722 295.717 240.756 294.431 242.19Z" fill="#BFBF22"/>
<path d="M303.823 240.565C304.937 241.466 306.037 242.485 306.491 243.806C306.675 244.341 306.64 245.087 306.081 245.272C305.702 245.398 305.3 245.18 304.974 244.958C302.204 243.073 299.549 239.922 298.27 236.914C300.172 237.389 302.313 239.343 303.823 240.565Z" fill="#BFBF22"/>
<path d="M292.716 233.262C291.603 232.361 290.503 231.342 290.049 230.021C289.865 229.487 289.9 228.74 290.458 228.554C290.837 228.429 291.239 228.647 291.565 228.869C294.335 230.754 296.99 233.904 298.27 236.913C296.367 236.439 294.226 234.484 292.716 233.262Z" fill="#BFBF22"/>
<path d="M299.748 236.914C299.748 237.688 299.088 238.316 298.273 238.316C297.457 238.316 296.797 237.688 296.797 236.914C296.797 236.139 297.457 235.512 298.273 235.512C299.088 235.512 299.748 236.139 299.748 236.914Z" fill="#FFF8ED"/>
<path d="M54.7075 173.639C54.5911 172.254 54.5713 170.795 55.2339 169.556C55.5016 169.054 56.0818 168.55 56.615 168.794C56.976 168.96 57.0986 169.384 57.1639 169.76C57.7196 172.953 57.2518 176.965 55.9177 179.952C54.9248 178.337 54.8655 175.517 54.7075 173.639Z" fill="#BFBF22"/>
<path d="M57.1274 186.264C57.2445 187.649 57.2636 189.108 56.6009 190.347C56.3333 190.849 55.7531 191.353 55.2198 191.109C54.8589 190.943 54.7363 190.519 54.6709 190.143C54.1152 186.95 54.5831 182.938 55.9172 179.951C56.9094 181.565 56.9687 184.385 57.1274 186.264Z" fill="#BFBF22"/>
<path d="M62.5626 178.802C64.0207 178.691 65.5571 178.673 66.8612 179.302C67.389 179.556 67.9195 180.107 67.6628 180.614C67.4884 180.957 67.0417 181.073 66.6467 181.136C63.2852 181.663 59.0629 181.219 55.918 179.952C57.6171 179.009 60.5856 178.952 62.5626 178.802Z" fill="#BFBF22"/>
<path d="M49.2726 181.1C47.8145 181.211 46.2781 181.229 44.974 180.6C44.4462 180.346 43.915 179.795 44.1724 179.288C44.3468 178.945 44.7935 178.829 45.1892 178.767C48.5507 178.239 52.773 178.683 55.9172 179.951C54.2181 180.893 51.2496 180.95 49.2726 181.1Z" fill="#BFBF22"/>
<path d="M59.7603 174.676C60.7089 173.618 61.7815 172.573 63.1721 172.142C63.7347 171.967 64.5206 172 64.716 172.531C64.8481 172.891 64.6186 173.273 64.385 173.582C62.4006 176.214 59.0847 178.736 55.918 179.952C56.4172 178.144 58.4745 176.111 59.7603 174.676Z" fill="#BFBF22"/>
<path d="M52.0758 185.229C51.1272 186.287 50.0546 187.332 48.664 187.763C48.1014 187.938 47.3155 187.905 47.1208 187.374C46.9887 187.014 47.2182 186.632 47.4517 186.322C49.4362 183.691 52.7521 181.169 55.9188 179.953C55.419 181.76 53.3616 183.794 52.0758 185.229Z" fill="#BFBF22"/>
<path d="M61.4677 183.603C62.5812 184.505 63.681 185.523 64.1353 186.845C64.3192 187.379 64.2837 188.126 63.7253 188.311C63.3467 188.437 62.9449 188.219 62.6187 187.997C59.849 186.112 57.1937 182.962 55.9141 179.953C57.8161 180.427 59.9573 182.382 61.4677 183.603Z" fill="#BFBF22"/>
<path d="M50.361 176.301C49.2476 175.4 48.1477 174.381 47.6935 173.059C47.5096 172.525 47.5444 171.778 48.1028 171.593C48.4814 171.468 48.8832 171.686 49.2094 171.908C51.9791 173.793 54.6344 176.943 55.914 179.952C54.012 179.477 51.8715 177.523 50.361 176.301Z" fill="#BFBF22"/>
<path d="M57.3929 179.951C57.3929 180.725 56.7323 181.353 55.9172 181.353C55.102 181.353 54.4414 180.725 54.4414 179.951C54.4414 179.176 55.102 178.549 55.9172 178.549C56.7323 178.549 57.3929 179.177 57.3929 179.951Z" fill="#FFF8ED"/>
<path d="M65.4926 195.298C65.4266 194.519 65.4164 193.698 65.7889 193.001C65.9394 192.719 66.2663 192.436 66.5659 192.573C66.7689 192.666 66.8376 192.905 66.8744 193.116C67.187 194.913 66.9241 197.169 66.1736 198.849C65.6152 197.941 65.5818 196.354 65.4926 195.298Z" fill="#BFBF22"/>
<path d="M66.8547 202.399C66.9201 203.178 66.931 203.999 66.5585 204.696C66.4079 204.978 66.0811 205.261 65.7814 205.124C65.5785 205.031 65.5097 204.792 65.4729 204.58C65.1603 202.784 65.4232 200.528 66.1737 198.848C66.7328 199.757 66.7662 201.342 66.8547 202.399Z" fill="#BFBF22"/>
<path d="M69.9139 198.201C70.7338 198.139 71.598 198.129 72.3315 198.483C72.6284 198.626 72.9267 198.936 72.7823 199.221C72.6842 199.414 72.433 199.479 72.2103 199.514C70.3191 199.811 67.9444 199.561 66.1758 198.848C67.1319 198.318 68.8018 198.286 69.9139 198.201Z" fill="#BFBF22"/>
<path d="M62.4372 199.494C61.6173 199.556 60.7531 199.566 60.0196 199.213C59.7227 199.07 59.4244 198.76 59.5688 198.474C59.6668 198.282 59.9181 198.216 60.1408 198.181C62.0313 197.884 64.4067 198.134 66.1753 198.847C65.2192 199.378 63.5493 199.409 62.4372 199.494Z" fill="#BFBF22"/>
<path d="M68.3366 195.881C68.8699 195.286 69.4739 194.698 70.2557 194.456C70.5724 194.357 71.0144 194.376 71.124 194.674C71.1983 194.877 71.0696 195.092 70.9381 195.266C69.8219 196.746 67.9566 198.165 66.1758 198.849C66.4564 197.832 67.6134 196.688 68.3366 195.881Z" fill="#BFBF22"/>
<path d="M64.0123 201.815C63.4791 202.41 62.8757 202.998 62.0932 203.241C61.7765 203.339 61.3346 203.32 61.2249 203.022C61.1507 202.819 61.2794 202.605 61.4108 202.431C62.527 200.95 64.3923 199.531 66.1732 198.848C65.8933 199.864 64.7356 201.009 64.0123 201.815Z" fill="#BFBF22"/>
<path d="M69.2996 200.9C69.9261 201.407 70.5445 201.98 70.7999 202.724C70.9034 203.024 70.8836 203.444 70.5697 203.548C70.3565 203.619 70.1304 203.497 69.9472 203.372C68.3891 202.311 66.8963 200.539 66.1758 198.848C67.2463 199.114 68.4504 200.213 69.2996 200.9Z" fill="#BFBF22"/>
<path d="M63.0525 196.794C62.426 196.287 61.8076 195.714 61.5522 194.971C61.4487 194.67 61.4684 194.25 61.7824 194.146C61.9956 194.075 62.2216 194.197 62.4048 194.322C63.963 195.383 65.4565 197.155 66.1763 198.847C65.1064 198.58 63.9017 197.481 63.0525 196.794Z" fill="#BFBF22"/>
<path d="M67.0041 198.847C67.0041 199.283 66.6322 199.636 66.1739 199.636C65.7156 199.636 65.3438 199.283 65.3438 198.847C65.3438 198.412 65.7156 198.059 66.1739 198.059C66.6322 198.059 67.0041 198.412 67.0041 198.847Z" fill="#FFF8ED"/>
<rect opacity="0.25" x="170.527" y="98" width="67.3684" height="64" rx="32" fill="#BFBF22"/>
<rect opacity="0.5" x="176.844" y="104" width="54.7368" height="52" rx="26" fill="#BFBF22"/>
<rect x="182.105" y="109" width="44.2105" height="42" rx="21" fill="#BFBF22"/>
<path d="M196.969 129.753L200.413 134.266L213.357 126.256" stroke="#008080" stroke-width="1.91618" stroke-linecap="round"/>
</g>
<defs>
<clipPath id="clip0_2267_21674">
<path d="M0 12C0 5.37258 5.37258 0 12 0H388C394.627 0 400 5.37258 400 12V260H0V12Z" fill="white"/>
</clipPath>
</defs>
</svg>
