<svg xmlns="http://www.w3.org/2000/svg" width="201" height="36" viewBox="0 0 201 36" fill="none">
  <path d="M36.2214 15.7513C36.1887 15.461 36.0482 15.1936 35.8277 15.0019C35.6072 14.8103 35.3228 14.7084 35.0308 14.7165L26.8334 14.7477C26.684 14.7475 26.538 14.703 26.4139 14.6197C26.2898 14.5364 26.1932 14.4182 26.1364 14.2799C26.0797 14.1417 26.0652 13.9897 26.095 13.8432C26.1248 13.6968 26.1974 13.5624 26.3036 13.4573L32.1633 7.60384C32.234 7.53424 32.2901 7.45127 32.3284 7.35977C32.3667 7.26827 32.3864 7.17006 32.3864 7.07086C32.3864 6.97166 32.3667 6.87345 32.3284 6.78195C32.2901 6.69045 32.234 6.60748 32.1633 6.53788L29.4204 3.80127C29.2772 3.66116 29.0847 3.5827 28.8843 3.5827C28.6839 3.5827 28.4915 3.66116 28.3482 3.80127L22.501 9.6485C22.3959 9.75473 22.2616 9.82732 22.1151 9.85708C21.9686 9.88684 21.8166 9.87242 21.6784 9.81565C21.5401 9.75888 21.4219 9.66232 21.3386 9.53823C21.2553 9.41413 21.2108 9.26809 21.2106 9.11864V1.0148C21.2123 0.915738 21.1944 0.817326 21.158 0.72518C21.1216 0.633034 21.0674 0.548959 20.9985 0.477757C20.9297 0.406555 20.8474 0.349621 20.7565 0.310207C20.6656 0.270793 20.5679 0.249671 20.4688 0.248047L16.5977 0.248047C16.3976 0.248047 16.2058 0.327516 16.0643 0.468971C15.9229 0.610426 15.8434 0.80228 15.8434 1.00233V9.10617C15.8432 9.25562 15.7987 9.40166 15.7154 9.52576C15.6321 9.64986 15.5139 9.74641 15.3756 9.80318C15.2374 9.85995 15.0854 9.87437 14.9389 9.84461C14.7925 9.81486 14.6581 9.74226 14.553 9.63604L8.78681 3.88231C8.64354 3.74219 8.45111 3.66374 8.25071 3.66374C8.05031 3.66374 7.85788 3.74219 7.71461 3.88231L4.978 6.61891C4.83678 6.76034 4.75745 6.95203 4.75745 7.1519C4.75745 7.35176 4.83678 7.54346 4.978 7.68488L10.7504 13.4573C10.857 13.5628 10.9298 13.6977 10.9593 13.8448C10.9889 13.9918 10.974 14.1443 10.9164 14.2828C10.8589 14.4213 10.7613 14.5395 10.6363 14.6223C10.5112 14.7051 10.3643 14.7488 10.2143 14.7477L1.99205 14.7165C1.70694 14.7208 1.43318 14.8289 1.22204 15.0205C1.0109 15.2122 0.876863 15.4742 0.845044 15.7576C0.777697 16.3786 0.744401 17.0029 0.745305 17.6277C0.701049 19.9916 1.12844 22.3407 2.00249 24.5376C2.87654 26.7345 4.17973 28.7351 5.83588 30.4226C7.49202 32.11 9.46791 33.4504 11.6481 34.3654C13.8282 35.2805 16.1689 35.7517 18.5332 35.7517C20.8976 35.7517 23.2383 35.2805 25.4184 34.3654C27.5986 33.4504 29.5745 32.11 31.2306 30.4226C32.8867 28.7351 34.1899 26.7345 35.064 24.5376C35.938 22.3407 36.3654 19.9916 36.3212 17.6277C36.3219 17.0009 36.2886 16.3745 36.2214 15.7513Z" fill="#E6F2F2"/>
  <path d="M43.5088 10.4534V5.68457H65.5325V10.4534H43.5088ZM51.7435 31.648V9.8861H57.3539V31.6543L51.7435 31.648Z" fill="#E6F2F2"/>
  <path d="M62.2842 31.6543L72.3329 5.68457H78.7474L88.7962 31.6543H82.8118L76.6467 14.6985C76.4347 14.0752 76.2166 13.4518 76.0233 12.7723C75.8301 12.0928 75.5745 11.3261 75.3127 10.4222H75.7366C75.4997 11.3261 75.269 12.1053 75.0446 12.7723C74.8202 13.4393 74.5833 14.0814 74.3464 14.6985L68.1127 31.6543H62.2842ZM69.5527 26.2746L71.267 21.6429H79.6763L81.3843 26.2746H69.5527Z" fill="#E6F2F2"/>
  <path d="M97.2061 31.6543H91.5957V5.68457H97.2061V31.6543Z" fill="#E6F2F2"/>
  <path d="M102.355 31.6543V5.68457H107.965V27.4527L107.342 26.8792H121.181V31.6543H102.355Z" fill="#E6F2F2"/>
  <path d="M133.792 32.0397C131.528 32.0899 129.289 31.5575 127.29 30.4937C125.446 29.4731 123.965 27.9047 123.051 26.0054C121.985 23.7038 121.473 21.1847 121.555 18.6496C121.497 16.2241 121.971 13.8153 122.945 11.593C123.808 9.6739 125.237 8.06436 127.041 6.98008C129.096 5.83829 131.423 5.27798 133.773 5.35931C136.033 5.30444 138.271 5.81891 140.281 6.8554C142.13 7.8611 143.619 9.41942 144.539 11.3125C145.606 13.6071 146.118 16.1204 146.035 18.6496C146.088 21.0808 145.614 23.4946 144.645 25.7249C143.784 27.6555 142.352 29.2763 140.543 30.369C138.489 31.5375 136.153 32.1157 133.792 32.0397ZM133.792 27.0153C134.666 27.0552 135.537 26.8952 136.34 26.5473C137.142 26.1995 137.855 25.673 138.423 25.008C139.562 23.6615 140.133 21.5525 140.138 18.6808C140.138 16.1374 139.626 14.1239 138.604 12.6403C137.582 11.1567 135.978 10.4149 133.792 10.4149C132.925 10.3796 132.062 10.5407 131.266 10.8861C130.471 11.2316 129.763 11.7524 129.197 12.4097C128.055 13.7395 127.485 15.8299 127.489 18.6808C127.489 21.2241 128.001 23.248 129.023 24.7524C130.039 26.2361 131.653 26.9841 133.792 26.9841V27.0153Z" fill="#E6F2F2"/>
  <path d="M150.006 31.6537V5.68405H163.446C164.992 5.6455 166.528 5.93663 167.953 6.53807C169.147 7.04578 170.166 7.89337 170.883 8.97546C171.598 10.1233 171.958 11.4572 171.917 12.8092C171.953 14.18 171.568 15.5289 170.814 16.6741C170.061 17.7659 168.963 18.5736 167.697 18.9681C168.596 19.0955 169.452 19.4376 170.191 19.9655C170.71 20.3859 171.083 20.9597 171.257 21.605C171.435 22.3415 171.519 23.0977 171.506 23.8554V29.8397C171.507 30.1227 171.549 30.404 171.631 30.6751C171.704 30.937 171.876 31.1604 172.111 31.2984V31.6537H166.27C166.152 31.3766 166.062 31.0884 166.002 30.7935C165.922 30.3471 165.887 29.8941 165.896 29.4408V24.4912C165.933 23.7845 165.787 23.0803 165.472 22.4465C165.185 21.9603 164.505 21.7172 163.44 21.7172H155.635V31.6537H150.006ZM155.616 17.1541H162.199C163.241 17.2247 164.272 16.8997 165.085 16.244C165.423 15.9258 165.687 15.5379 165.859 15.1072C166.031 14.6766 166.108 14.2136 166.083 13.7505C166.112 13.2816 166.033 12.8123 165.85 12.3795C165.667 11.9468 165.386 11.5625 165.029 11.257C164.232 10.6699 163.257 10.3749 162.268 10.4217H155.635L155.616 17.1541Z" fill="#E6F2F2"/>
  <path d="M174.236 31.6543L184.279 5.68457H190.693L200.742 31.6543H194.758L188.593 14.6985C188.381 14.0752 188.162 13.4518 187.969 12.7723C187.776 12.0928 187.52 11.3261 187.259 10.4222H187.682C187.446 11.3261 187.215 12.1053 186.991 12.7723C186.766 13.4393 186.529 14.0814 186.292 14.6985L180.059 31.6543H174.236ZM181.524 26.2746L183.232 21.6429H191.622L193.33 26.2746H181.524Z" fill="#E6F2F2"/>
</svg>