<svg width="102" height="103" viewBox="0 0 102 103" fill="none" xmlns="http://www.w3.org/2000/svg">
<path d="M101.111 45.0705C101.018 44.2434 100.618 43.4814 99.9894 42.9354C99.3612 42.3894 98.5508 42.0992 97.7188 42.1222L74.3631 42.211C73.9373 42.2106 73.5212 42.0837 73.1676 41.8464C72.814 41.6091 72.5389 41.2722 72.3772 40.8783C72.2154 40.4844 72.1743 40.0513 72.2591 39.634C72.3439 39.2167 72.5507 38.834 72.8534 38.5345L89.5487 21.8569C89.7501 21.6586 89.91 21.4222 90.0192 21.1615C90.1283 20.9008 90.1846 20.621 90.1846 20.3383C90.1846 20.0557 90.1283 19.7759 90.0192 19.5152C89.91 19.2545 89.7501 19.0181 89.5487 18.8198L81.7339 11.0227C81.3257 10.6235 80.7774 10.3999 80.2064 10.3999C79.6355 10.3999 79.0872 10.6235 78.679 11.0227L62.0192 27.6825C61.7196 27.9852 61.337 28.192 60.9197 28.2768C60.5024 28.3616 60.0693 28.3205 59.6754 28.1587C59.2815 27.997 58.9445 27.7219 58.7073 27.3683C58.47 27.0147 58.3431 26.5986 58.3427 26.1728V3.08353C58.3474 2.8013 58.2964 2.5209 58.1927 2.25836C58.0891 1.99582 57.9347 1.75628 57.7384 1.55341C57.5421 1.35054 57.3078 1.18833 57.0489 1.07603C56.7899 0.963733 56.5113 0.903552 56.2291 0.898926L45.1995 0.898926C44.6295 0.898926 44.0829 1.12535 43.6799 1.52838C43.2769 1.93141 43.0504 2.47804 43.0504 3.04801V26.1373C43.05 26.5631 42.9231 26.9792 42.6858 27.3328C42.4486 27.6864 42.1116 27.9615 41.7177 28.1232C41.3238 28.285 40.8907 28.3261 40.4734 28.2413C40.0561 28.1565 39.6734 27.9496 39.3739 27.647L22.945 11.2536C22.5368 10.8544 21.9885 10.6308 21.4175 10.6308C20.8466 10.6308 20.2983 10.8544 19.8901 11.2536L12.093 19.0507C11.6906 19.4536 11.4646 19.9998 11.4646 20.5692C11.4646 21.1387 11.6906 21.6849 12.093 22.0878L28.5397 38.5345C28.8434 38.8351 29.0507 39.2194 29.1349 39.6384C29.2191 40.0573 29.1766 40.4919 29.0126 40.8865C28.8486 41.2811 28.5708 41.6179 28.2144 41.8539C27.8581 42.0898 27.4396 42.2141 27.0123 42.211L3.5855 42.1222C2.77318 42.1344 1.99317 42.4424 1.39159 42.9884C0.790012 43.5344 0.408128 44.281 0.317471 45.0883C0.125587 46.8579 0.0307196 48.6366 0.0332952 50.4166C-0.0927978 57.1519 1.12491 63.8449 3.61524 70.1042C6.10558 76.3635 9.81858 82.0637 14.5372 86.8715C19.2559 91.6793 24.8856 95.4984 31.0972 98.1055C37.3088 100.713 43.9778 102.055 50.7143 102.055C57.4508 102.055 64.1198 100.713 70.3314 98.1055C76.5431 95.4984 82.1727 91.6793 86.8914 86.8715C91.61 82.0637 95.323 76.3635 97.8134 70.1042C100.304 63.8449 101.521 57.1519 101.395 50.4166C101.397 48.6307 101.303 46.8461 101.111 45.0705Z" fill="#E6F2F2"/>
</svg>
